<mxfile host="Electron" modified="2023-09-01T18:08:16.786Z" agent="Mozilla/5.0 (Macintosh; Intel Mac OS X 10_15_7) AppleWebKit/537.36 (KHTML, like Gecko) draw.io/21.6.8 Chrome/114.0.5735.289 Electron/25.5.0 Safari/537.36" etag="r-TFJkSjmosX4-dSgu6a" version="21.6.8" type="device" pages="2">
  <diagram id="DZq95CDJEcNnEX3gtbl7" name="physical-runtime">
    <mxGraphModel dx="1336" dy="2062" grid="1" gridSize="10" guides="1" tooltips="1" connect="1" arrows="1" fold="1" page="1" pageScale="1" pageWidth="1100" pageHeight="850" background="#ffffff" math="0" shadow="0">
      <root>
        <mxCell id="0" />
        <mxCell id="1" parent="0" />
        <mxCell id="42" value="   Tenant Silo" style="fillColor=none;strokeColor=#5A6C86;dashed=1;verticalAlign=top;fontStyle=0;fontColor=#5A6C86;labelBackgroundColor=none;align=left;" parent="1" vertex="1">
          <mxGeometry x="210" y="50" width="960" height="1050" as="geometry" />
        </mxCell>
        <mxCell id="43" value="Region" style="points=[[0,0],[0.25,0],[0.5,0],[0.75,0],[1,0],[1,0.25],[1,0.5],[1,0.75],[1,1],[0.75,1],[0.5,1],[0.25,1],[0,1],[0,0.75],[0,0.5],[0,0.25]];outlineConnect=0;gradientColor=none;html=1;whiteSpace=wrap;fontSize=12;fontStyle=0;container=1;pointerEvents=0;collapsible=0;recursiveResize=0;shape=mxgraph.aws4.group;grIcon=mxgraph.aws4.group_region;strokeColor=#147EBA;fillColor=none;verticalAlign=top;align=left;spacingLeft=30;fontColor=#147EBA;dashed=1;" parent="1" vertex="1">
          <mxGeometry x="190" y="20" width="1000" height="1100" as="geometry" />
        </mxCell>
        <mxCell id="44" value="AWS Cloud" style="points=[[0,0],[0.25,0],[0.5,0],[0.75,0],[1,0],[1,0.25],[1,0.5],[1,0.75],[1,1],[0.75,1],[0.5,1],[0.25,1],[0,1],[0,0.75],[0,0.5],[0,0.25]];outlineConnect=0;gradientColor=none;html=1;whiteSpace=wrap;fontSize=12;fontStyle=0;container=1;pointerEvents=0;collapsible=0;recursiveResize=0;shape=mxgraph.aws4.group;grIcon=mxgraph.aws4.group_aws_cloud_alt;strokeColor=#232F3E;fillColor=none;verticalAlign=top;align=left;spacingLeft=30;fontColor=#232F3E;dashed=0;" parent="1" vertex="1">
          <mxGeometry x="170" y="-10" width="1040" height="1150" as="geometry" />
        </mxCell>
        <mxCell id="aaWiERCUlSNiqH8K9m5D-63" value="Access Management Module" style="fillColor=none;strokeColor=#5A6C86;dashed=1;verticalAlign=top;fontStyle=0;fontColor=#5A6C86;labelBackgroundColor=none;" parent="44" vertex="1">
          <mxGeometry x="60" y="90" width="260" height="170" as="geometry" />
        </mxCell>
        <mxCell id="39" value="Pipeline Processors Module" style="fillColor=none;strokeColor=#5A6C86;dashed=1;verticalAlign=top;fontStyle=0;fontColor=#5A6C86;labelBackgroundColor=none;" parent="44" vertex="1">
          <mxGeometry x="60" y="280" width="920" height="568" as="geometry" />
        </mxCell>
        <mxCell id="28" value="read/write" style="edgeStyle=none;html=1;strokeColor=#000000;labelBackgroundColor=none;fontColor=#000000;" parent="44" source="24" target="27" edge="1">
          <mxGeometry x="-0.6484" y="14" relative="1" as="geometry">
            <mxPoint as="offset" />
          </mxGeometry>
        </mxCell>
        <mxCell id="Xhm-vHpL3H6jK5L-5Qmt-45" value="invokes" style="edgeStyle=orthogonalEdgeStyle;rounded=0;orthogonalLoop=1;jettySize=auto;html=1;" parent="44" source="24" target="Xhm-vHpL3H6jK5L-5Qmt-44" edge="1">
          <mxGeometry x="-0.7391" relative="1" as="geometry">
            <Array as="points">
              <mxPoint x="330" y="170" />
            </Array>
            <mxPoint as="offset" />
          </mxGeometry>
        </mxCell>
        <mxCell id="0q_fMDn01YKZUEqcUs50-50" value="starts" style="edgeStyle=orthogonalEdgeStyle;rounded=0;orthogonalLoop=1;jettySize=auto;html=1;" parent="44" source="24" target="0q_fMDn01YKZUEqcUs50-44" edge="1">
          <mxGeometry x="-0.4531" relative="1" as="geometry">
            <Array as="points">
              <mxPoint x="329" y="638" />
              <mxPoint x="329" y="638" />
            </Array>
            <mxPoint as="offset" />
          </mxGeometry>
        </mxCell>
        <mxCell id="Mv9unRUPWDGc8KIIRbmf-45" value="read/write" style="rounded=0;orthogonalLoop=1;jettySize=auto;html=1;entryX=0.5;entryY=0;entryDx=0;entryDy=0;entryPerimeter=0;" parent="44" source="24" target="Mv9unRUPWDGc8KIIRbmf-44" edge="1">
          <mxGeometry x="-0.386" y="8" relative="1" as="geometry">
            <mxPoint as="offset" />
          </mxGeometry>
        </mxCell>
        <mxCell id="Mv9unRUPWDGc8KIIRbmf-47" value="read/write" style="edgeStyle=none;rounded=0;orthogonalLoop=1;jettySize=auto;html=1;entryX=0.5;entryY=0;entryDx=0;entryDy=0;entryPerimeter=0;" parent="44" source="24" target="Mv9unRUPWDGc8KIIRbmf-46" edge="1">
          <mxGeometry relative="1" as="geometry" />
        </mxCell>
        <mxCell id="24" value="AWS Lambda&lt;br style=&quot;border-color: var(--border-color);&quot;&gt;&lt;i style=&quot;border-color: var(--border-color);&quot;&gt;(API)&lt;/i&gt;" style="sketch=0;points=[[0,0,0],[0.25,0,0],[0.5,0,0],[0.75,0,0],[1,0,0],[0,1,0],[0.25,1,0],[0.5,1,0],[0.75,1,0],[1,1,0],[0,0.25,0],[0,0.5,0],[0,0.75,0],[1,0.25,0],[1,0.5,0],[1,0.75,0]];outlineConnect=0;fontColor=#000000;gradientColor=#F78E04;gradientDirection=north;fillColor=#D05C17;strokeColor=#ffffff;dashed=0;verticalLabelPosition=bottom;verticalAlign=top;align=center;html=1;fontSize=12;fontStyle=0;aspect=fixed;shape=mxgraph.aws4.resourceIcon;resIcon=mxgraph.aws4.lambda;labelBackgroundColor=none;" parent="44" vertex="1">
          <mxGeometry x="290" y="345" width="78" height="78" as="geometry" />
        </mxCell>
        <mxCell id="26" value="proxy pass" style="edgeStyle=none;html=1;strokeColor=#000000;fontColor=#000000;labelBackgroundColor=none;" parent="44" source="25" target="24" edge="1">
          <mxGeometry x="-0.418" y="16" relative="1" as="geometry">
            <mxPoint x="251" y="374" as="targetPoint" />
            <mxPoint as="offset" />
          </mxGeometry>
        </mxCell>
        <mxCell id="aaWiERCUlSNiqH8K9m5D-60" value="auth" style="edgeStyle=none;rounded=0;orthogonalLoop=1;jettySize=auto;html=1;" parent="44" source="25" target="29" edge="1">
          <mxGeometry x="-0.7718" relative="1" as="geometry">
            <mxPoint x="129" y="280" as="targetPoint" />
            <mxPoint as="offset" />
          </mxGeometry>
        </mxCell>
        <mxCell id="25" value="Amazon&lt;br style=&quot;border-color: var(--border-color);&quot;&gt;API Gateway" style="sketch=0;points=[[0,0,0],[0.25,0,0],[0.5,0,0],[0.75,0,0],[1,0,0],[0,1,0],[0.25,1,0],[0.5,1,0],[0.75,1,0],[1,1,0],[0,0.25,0],[0,0.5,0],[0,0.75,0],[1,0.25,0],[1,0.5,0],[1,0.75,0]];outlineConnect=0;fontColor=#000000;gradientColor=#FF4F8B;gradientDirection=north;fillColor=#BC1356;strokeColor=#ffffff;dashed=0;verticalLabelPosition=bottom;verticalAlign=top;align=center;html=1;fontSize=12;fontStyle=0;aspect=fixed;shape=mxgraph.aws4.resourceIcon;resIcon=mxgraph.aws4.api_gateway;labelBackgroundColor=none;" parent="44" vertex="1">
          <mxGeometry x="90" y="345" width="78" height="78" as="geometry" />
        </mxCell>
        <mxCell id="41" value="REST" style="edgeStyle=none;html=1;labelBackgroundColor=none;fontColor=#000000;strokeColor=#000000;" parent="44" source="40" target="25" edge="1">
          <mxGeometry x="-0.6328" y="15" relative="1" as="geometry">
            <mxPoint x="-20" y="354" as="targetPoint" />
            <mxPoint as="offset" />
          </mxGeometry>
        </mxCell>
        <mxCell id="40" value="users" style="sketch=0;outlineConnect=0;gradientColor=none;fontColor=#545B64;strokeColor=none;fillColor=#879196;dashed=0;verticalLabelPosition=bottom;verticalAlign=top;align=center;html=1;fontSize=12;fontStyle=0;aspect=fixed;shape=mxgraph.aws4.illustration_users;pointerEvents=1;labelBackgroundColor=none;" parent="44" vertex="1">
          <mxGeometry x="-130" y="345" width="78" height="78" as="geometry" />
        </mxCell>
        <mxCell id="29" value="Amazon Cognito&lt;br style=&quot;border-color: var(--border-color);&quot;&gt;User Pool" style="sketch=0;points=[[0,0,0],[0.25,0,0],[0.5,0,0],[0.75,0,0],[1,0,0],[0,1,0],[0.25,1,0],[0.5,1,0],[0.75,1,0],[1,1,0],[0,0.25,0],[0,0.5,0],[0,0.75,0],[1,0.25,0],[1,0.5,0],[1,0.75,0]];outlineConnect=0;fontColor=#000000;gradientColor=#F54749;gradientDirection=north;fillColor=#C7131F;strokeColor=#ffffff;dashed=0;verticalLabelPosition=bottom;verticalAlign=top;align=center;html=1;fontSize=12;fontStyle=0;aspect=fixed;shape=mxgraph.aws4.resourceIcon;resIcon=mxgraph.aws4.cognito;labelBackgroundColor=none;" parent="44" vertex="1">
          <mxGeometry x="90" y="130" width="78" height="78" as="geometry" />
        </mxCell>
        <mxCell id="27" value="Amazon&lt;br style=&quot;border-color: var(--border-color);&quot;&gt;DynamoDB&lt;br&gt;&lt;i&gt;(Config Datastore)&lt;/i&gt;" style="sketch=0;points=[[0,0,0],[0.25,0,0],[0.5,0,0],[0.75,0,0],[1,0,0],[0,1,0],[0.25,1,0],[0.5,1,0],[0.75,1,0],[1,1,0],[0,0.25,0],[0,0.5,0],[0,0.75,0],[1,0.25,0],[1,0.5,0],[1,0.75,0]];outlineConnect=0;fontColor=#000000;gradientColor=#4D72F3;gradientDirection=north;fillColor=#3334B9;strokeColor=#ffffff;dashed=0;verticalLabelPosition=bottom;verticalAlign=top;align=center;html=1;fontSize=12;fontStyle=0;aspect=fixed;shape=mxgraph.aws4.resourceIcon;resIcon=mxgraph.aws4.dynamodb;labelBackgroundColor=none;" parent="44" vertex="1">
          <mxGeometry x="550" y="345" width="78" height="78" as="geometry" />
        </mxCell>
        <mxCell id="Xhm-vHpL3H6jK5L-5Qmt-44" value="AWS Lambda&lt;br style=&quot;border-color: var(--border-color);&quot;&gt;&lt;i style=&quot;border-color: var(--border-color);&quot;&gt;(API)&lt;/i&gt;" style="sketch=0;points=[[0,0,0],[0.25,0,0],[0.5,0,0],[0.75,0,0],[1,0,0],[0,1,0],[0.25,1,0],[0.5,1,0],[0.75,1,0],[1,1,0],[0,0.25,0],[0,0.5,0],[0,0.75,0],[1,0.25,0],[1,0.5,0],[1,0.75,0]];outlineConnect=0;fontColor=#000000;gradientColor=#F78E04;gradientDirection=north;fillColor=#D05C17;strokeColor=#ffffff;dashed=0;verticalLabelPosition=bottom;verticalAlign=top;align=center;html=1;fontSize=12;fontStyle=0;aspect=fixed;shape=mxgraph.aws4.resourceIcon;resIcon=mxgraph.aws4.lambda;labelBackgroundColor=none;" parent="44" vertex="1">
          <mxGeometry x="212" y="130" width="78" height="78" as="geometry" />
        </mxCell>
        <mxCell id="x7ASuFgN5LkW3VP-AlHl-44" value="read/write" style="edgeStyle=orthogonalEdgeStyle;rounded=0;orthogonalLoop=1;jettySize=auto;html=1;" edge="1" parent="44" source="0q_fMDn01YKZUEqcUs50-44" target="27">
          <mxGeometry relative="1" as="geometry">
            <Array as="points">
              <mxPoint x="730" y="750" />
              <mxPoint x="730" y="400" />
            </Array>
          </mxGeometry>
        </mxCell>
        <mxCell id="0q_fMDn01YKZUEqcUs50-44" value="AWS Step Function" style="points=[[0,0],[0.25,0],[0.5,0],[0.75,0],[1,0],[1,0.25],[1,0.5],[1,0.75],[1,1],[0.75,1],[0.5,1],[0.25,1],[0,1],[0,0.75],[0,0.5],[0,0.25]];outlineConnect=0;gradientColor=none;html=1;whiteSpace=wrap;fontSize=12;fontStyle=0;container=1;pointerEvents=0;collapsible=0;recursiveResize=0;shape=mxgraph.aws4.group;grIcon=mxgraph.aws4.group_aws_step_functions_workflow;strokeColor=#CD2264;fillColor=none;verticalAlign=top;align=left;spacingLeft=30;fontColor=#CD2264;dashed=0;direction=east;" parent="44" vertex="1">
          <mxGeometry x="90" y="668" width="650" height="160" as="geometry" />
        </mxCell>
        <mxCell id="0q_fMDn01YKZUEqcUs50-45" value="AWS Lambda&lt;br style=&quot;border-color: var(--border-color);&quot;&gt;&lt;i&gt;(Verification)&lt;/i&gt;" style="sketch=0;points=[[0,0,0],[0.25,0,0],[0.5,0,0],[0.75,0,0],[1,0,0],[0,1,0],[0.25,1,0],[0.5,1,0],[0.75,1,0],[1,1,0],[0,0.25,0],[0,0.5,0],[0,0.75,0],[1,0.25,0],[1,0.5,0],[1,0.75,0]];outlineConnect=0;fontColor=#000000;gradientColor=#F78E04;gradientDirection=north;fillColor=#D05C17;strokeColor=#ffffff;dashed=0;verticalLabelPosition=bottom;verticalAlign=top;align=center;html=1;fontSize=12;fontStyle=0;aspect=fixed;shape=mxgraph.aws4.resourceIcon;resIcon=mxgraph.aws4.lambda;labelBackgroundColor=none;" parent="0q_fMDn01YKZUEqcUs50-44" vertex="1">
          <mxGeometry x="32" y="41" width="78" height="78" as="geometry" />
        </mxCell>
        <mxCell id="x7ASuFgN5LkW3VP-AlHl-68" style="edgeStyle=orthogonalEdgeStyle;rounded=0;orthogonalLoop=1;jettySize=auto;html=1;" edge="1" parent="0q_fMDn01YKZUEqcUs50-44" source="Mv9unRUPWDGc8KIIRbmf-48">
          <mxGeometry relative="1" as="geometry">
            <mxPoint x="70" y="282" as="targetPoint" />
            <Array as="points">
              <mxPoint x="582" y="192" />
              <mxPoint x="71" y="192" />
            </Array>
          </mxGeometry>
        </mxCell>
        <mxCell id="Mv9unRUPWDGc8KIIRbmf-48" value="AWS Lambda&lt;br style=&quot;border-color: var(--border-color);&quot;&gt;&lt;i&gt;(Results Processor)&lt;/i&gt;" style="sketch=0;points=[[0,0,0],[0.25,0,0],[0.5,0,0],[0.75,0,0],[1,0,0],[0,1,0],[0.25,1,0],[0.5,1,0],[0.75,1,0],[1,1,0],[0,0.25,0],[0,0.5,0],[0,0.75,0],[1,0.25,0],[1,0.5,0],[1,0.75,0]];outlineConnect=0;fontColor=#000000;gradientColor=#F78E04;gradientDirection=north;fillColor=#D05C17;strokeColor=#ffffff;dashed=0;verticalLabelPosition=bottom;verticalAlign=top;align=center;html=1;fontSize=12;fontStyle=0;aspect=fixed;shape=mxgraph.aws4.resourceIcon;resIcon=mxgraph.aws4.lambda;labelBackgroundColor=none;" parent="0q_fMDn01YKZUEqcUs50-44" vertex="1">
          <mxGeometry x="543" y="41" width="78" height="78" as="geometry" />
        </mxCell>
        <mxCell id="Mv9unRUPWDGc8KIIRbmf-44" value="Amazon Aurora&lt;br&gt;&lt;i&gt;(Metrics Datastore)&lt;/i&gt;" style="sketch=0;points=[[0,0,0],[0.25,0,0],[0.5,0,0],[0.75,0,0],[1,0,0],[0,1,0],[0.25,1,0],[0.5,1,0],[0.75,1,0],[1,1,0],[0,0.25,0],[0,0.5,0],[0,0.75,0],[1,0.25,0],[1,0.5,0],[1,0.75,0]];outlineConnect=0;fontColor=#000000;gradientColor=#4D72F3;gradientDirection=north;fillColor=#3334B9;strokeColor=#ffffff;dashed=0;verticalLabelPosition=bottom;verticalAlign=top;align=center;html=1;fontSize=12;fontStyle=0;aspect=fixed;shape=mxgraph.aws4.resourceIcon;resIcon=mxgraph.aws4.dynamodb;labelBackgroundColor=none;" parent="44" vertex="1">
          <mxGeometry x="505.5" y="518" width="78" height="78" as="geometry" />
        </mxCell>
        <mxCell id="Mv9unRUPWDGc8KIIRbmf-46" value="Amazon Aurora&lt;br&gt;&lt;i&gt;(Activities Datastore)&lt;/i&gt;" style="sketch=0;points=[[0,0,0],[0.25,0,0],[0.5,0,0],[0.75,0,0],[1,0,0],[0,1,0],[0.25,1,0],[0.5,1,0],[0.75,1,0],[1,1,0],[0,0.25,0],[0,0.5,0],[0,0.75,0],[1,0.25,0],[1,0.5,0],[1,0.75,0]];outlineConnect=0;fontColor=#232F3E;gradientColor=#4D72F3;gradientDirection=north;fillColor=#3334B9;strokeColor=#ffffff;dashed=0;verticalLabelPosition=bottom;verticalAlign=top;align=center;html=1;fontSize=12;fontStyle=0;aspect=fixed;shape=mxgraph.aws4.resourceIcon;resIcon=mxgraph.aws4.aurora;" parent="44" vertex="1">
          <mxGeometry x="380" y="518" width="78" height="78" as="geometry" />
        </mxCell>
        <mxCell id="Mv9unRUPWDGc8KIIRbmf-51" value="read" style="edgeStyle=none;rounded=0;orthogonalLoop=1;jettySize=auto;html=1;" parent="44" source="0q_fMDn01YKZUEqcUs50-47" target="Mv9unRUPWDGc8KIIRbmf-46" edge="1">
          <mxGeometry x="-0.4716" y="-1" relative="1" as="geometry">
            <mxPoint as="offset" />
          </mxGeometry>
        </mxCell>
        <mxCell id="Mv9unRUPWDGc8KIIRbmf-52" value="read/write" style="edgeStyle=none;rounded=0;orthogonalLoop=1;jettySize=auto;html=1;" parent="44" source="x7ASuFgN5LkW3VP-AlHl-60" target="Mv9unRUPWDGc8KIIRbmf-44" edge="1">
          <mxGeometry x="-0.4518" y="-3" relative="1" as="geometry">
            <mxPoint as="offset" />
          </mxGeometry>
        </mxCell>
        <mxCell id="x7ASuFgN5LkW3VP-AlHl-48" style="edgeStyle=orthogonalEdgeStyle;rounded=0;orthogonalLoop=1;jettySize=auto;html=1;" edge="1" parent="44" source="x7ASuFgN5LkW3VP-AlHl-45" target="x7ASuFgN5LkW3VP-AlHl-47">
          <mxGeometry relative="1" as="geometry" />
        </mxCell>
        <mxCell id="x7ASuFgN5LkW3VP-AlHl-45" value="Amazon SQS&lt;br&gt;&lt;i&gt;(Activity Bulk Inserts)&lt;/i&gt;" style="sketch=0;outlineConnect=0;fontColor=#232F3E;gradientColor=none;fillColor=#B0084D;strokeColor=none;dashed=0;verticalLabelPosition=bottom;verticalAlign=top;align=center;html=1;fontSize=12;fontStyle=0;aspect=fixed;pointerEvents=1;shape=mxgraph.aws4.queue;" vertex="1" parent="44">
          <mxGeometry x="830" y="730" width="78" height="47" as="geometry" />
        </mxCell>
        <mxCell id="x7ASuFgN5LkW3VP-AlHl-49" value="write" style="edgeStyle=orthogonalEdgeStyle;rounded=0;orthogonalLoop=1;jettySize=auto;html=1;" edge="1" parent="44" source="x7ASuFgN5LkW3VP-AlHl-47" target="27">
          <mxGeometry x="-0.703" y="-9" relative="1" as="geometry">
            <Array as="points">
              <mxPoint x="780" y="379" />
              <mxPoint x="780" y="379" />
            </Array>
            <mxPoint as="offset" />
          </mxGeometry>
        </mxCell>
        <mxCell id="x7ASuFgN5LkW3VP-AlHl-47" value="AWS Lambda&lt;br style=&quot;border-color: var(--border-color);&quot;&gt;&lt;i&gt;(Activity Bulk Inserts)&lt;/i&gt;" style="sketch=0;points=[[0,0,0],[0.25,0,0],[0.5,0,0],[0.75,0,0],[1,0,0],[0,1,0],[0.25,1,0],[0.5,1,0],[0.75,1,0],[1,1,0],[0,0.25,0],[0,0.5,0],[0,0.75,0],[1,0.25,0],[1,0.5,0],[1,0.75,0]];outlineConnect=0;fontColor=#000000;gradientColor=#F78E04;gradientDirection=north;fillColor=#D05C17;strokeColor=#ffffff;dashed=0;verticalLabelPosition=bottom;verticalAlign=top;align=center;html=1;fontSize=12;fontStyle=0;aspect=fixed;shape=mxgraph.aws4.resourceIcon;resIcon=mxgraph.aws4.lambda;labelBackgroundColor=none;" vertex="1" parent="44">
          <mxGeometry x="830" y="340" width="78" height="78" as="geometry" />
        </mxCell>
        <mxCell id="x7ASuFgN5LkW3VP-AlHl-61" style="edgeStyle=orthogonalEdgeStyle;rounded=0;orthogonalLoop=1;jettySize=auto;html=1;" edge="1" parent="44" source="0q_fMDn01YKZUEqcUs50-47" target="x7ASuFgN5LkW3VP-AlHl-60">
          <mxGeometry relative="1" as="geometry" />
        </mxCell>
        <mxCell id="0q_fMDn01YKZUEqcUs50-47" value="AWS Lambda&lt;br style=&quot;border-color: var(--border-color);&quot;&gt;&lt;i&gt;(Pipeline Aggregation)&lt;/i&gt;" style="sketch=0;points=[[0,0,0],[0.25,0,0],[0.5,0,0],[0.75,0,0],[1,0,0],[0,1,0],[0.25,1,0],[0.5,1,0],[0.75,1,0],[1,1,0],[0,0.25,0],[0,0.5,0],[0,0.75,0],[1,0.25,0],[1,0.5,0],[1,0.75,0]];outlineConnect=0;fontColor=#000000;gradientColor=#F78E04;gradientDirection=north;fillColor=#D05C17;strokeColor=#ffffff;dashed=0;verticalLabelPosition=bottom;verticalAlign=top;align=center;html=1;fontSize=12;fontStyle=0;aspect=fixed;shape=mxgraph.aws4.resourceIcon;resIcon=mxgraph.aws4.lambda;labelBackgroundColor=none;" parent="44" vertex="1">
          <mxGeometry x="380" y="709" width="78" height="78" as="geometry" />
        </mxCell>
        <mxCell id="0q_fMDn01YKZUEqcUs50-49" style="edgeStyle=orthogonalEdgeStyle;rounded=0;orthogonalLoop=1;jettySize=auto;html=1;" parent="44" source="0q_fMDn01YKZUEqcUs50-46" target="0q_fMDn01YKZUEqcUs50-47" edge="1">
          <mxGeometry relative="1" as="geometry" />
        </mxCell>
        <mxCell id="x7ASuFgN5LkW3VP-AlHl-62" style="edgeStyle=orthogonalEdgeStyle;rounded=0;orthogonalLoop=1;jettySize=auto;html=1;" edge="1" parent="44" source="x7ASuFgN5LkW3VP-AlHl-60" target="Mv9unRUPWDGc8KIIRbmf-48">
          <mxGeometry relative="1" as="geometry" />
        </mxCell>
        <mxCell id="x7ASuFgN5LkW3VP-AlHl-60" value="AWS Lambda&lt;br style=&quot;border-color: var(--border-color);&quot;&gt;&lt;i&gt;(Metric Aggregation)&lt;/i&gt;" style="sketch=0;points=[[0,0,0],[0.25,0,0],[0.5,0,0],[0.75,0,0],[1,0,0],[0,1,0],[0.25,1,0],[0.5,1,0],[0.75,1,0],[1,1,0],[0,0.25,0],[0,0.5,0],[0,0.75,0],[1,0.25,0],[1,0.5,0],[1,0.75,0]];outlineConnect=0;fontColor=#000000;gradientColor=#F78E04;gradientDirection=north;fillColor=#D05C17;strokeColor=#ffffff;dashed=0;verticalLabelPosition=bottom;verticalAlign=top;align=center;html=1;fontSize=12;fontStyle=0;aspect=fixed;shape=mxgraph.aws4.resourceIcon;resIcon=mxgraph.aws4.lambda;labelBackgroundColor=none;" vertex="1" parent="44">
          <mxGeometry x="505.5" y="709" width="78" height="78" as="geometry" />
        </mxCell>
        <mxCell id="0q_fMDn01YKZUEqcUs50-46" value="AWS Lambda&lt;br style=&quot;border-color: var(--border-color);&quot;&gt;&lt;i&gt;(Calculation)&lt;/i&gt;" style="sketch=0;points=[[0,0,0],[0.25,0,0],[0.5,0,0],[0.75,0,0],[1,0,0],[0,1,0],[0.25,1,0],[0.5,1,0],[0.75,1,0],[1,1,0],[0,0.25,0],[0,0.5,0],[0,0.75,0],[1,0.25,0],[1,0.5,0],[1,0.75,0]];outlineConnect=0;fontColor=#000000;gradientColor=#F78E04;gradientDirection=north;fillColor=#D05C17;strokeColor=#ffffff;dashed=0;verticalLabelPosition=bottom;verticalAlign=top;align=center;html=1;fontSize=12;fontStyle=0;aspect=fixed;shape=mxgraph.aws4.resourceIcon;resIcon=mxgraph.aws4.lambda;labelBackgroundColor=none;" parent="44" vertex="1">
          <mxGeometry x="250" y="709" width="78" height="78" as="geometry" />
        </mxCell>
        <mxCell id="0q_fMDn01YKZUEqcUs50-48" style="edgeStyle=orthogonalEdgeStyle;rounded=0;orthogonalLoop=1;jettySize=auto;html=1;" parent="44" source="0q_fMDn01YKZUEqcUs50-45" target="0q_fMDn01YKZUEqcUs50-46" edge="1">
          <mxGeometry relative="1" as="geometry" />
        </mxCell>
        <mxCell id="Mv9unRUPWDGc8KIIRbmf-53" value="SIF Shared&#xa;Environment Resources" style="fillColor=none;strokeColor=#5A6C86;dashed=1;verticalAlign=top;fontStyle=0;fontColor=#5A6C86;labelBackgroundColor=none;" parent="1" vertex="1">
          <mxGeometry x="540" y="80" width="140" height="170" as="geometry" />
        </mxCell>
        <mxCell id="Mv9unRUPWDGc8KIIRbmf-54" value="Amazon&lt;br style=&quot;border-color: var(--border-color);&quot;&gt;EventBridge" style="sketch=0;points=[[0,0,0],[0.25,0,0],[0.5,0,0],[0.75,0,0],[1,0,0],[0,1,0],[0.25,1,0],[0.5,1,0],[0.75,1,0],[1,1,0],[0,0.25,0],[0,0.5,0],[0,0.75,0],[1,0.25,0],[1,0.5,0],[1,0.75,0]];outlineConnect=0;fontColor=#232F3E;gradientColor=#FF4F8B;gradientDirection=north;fillColor=#BC1356;strokeColor=#ffffff;dashed=0;verticalLabelPosition=bottom;verticalAlign=top;align=center;html=1;fontSize=12;fontStyle=0;aspect=fixed;shape=mxgraph.aws4.resourceIcon;resIcon=mxgraph.aws4.eventbridge;" parent="1" vertex="1">
          <mxGeometry x="569" y="120" width="80" height="80" as="geometry" />
        </mxCell>
        <mxCell id="Mv9unRUPWDGc8KIIRbmf-55" value="events" style="rounded=0;orthogonalLoop=1;jettySize=auto;html=1;edgeStyle=orthogonalEdgeStyle;" parent="1" source="24" target="Mv9unRUPWDGc8KIIRbmf-54" edge="1">
          <mxGeometry x="-0.8009" y="10" relative="1" as="geometry">
            <Array as="points">
              <mxPoint x="609" y="350" />
            </Array>
            <mxPoint as="offset" />
          </mxGeometry>
        </mxCell>
        <mxCell id="x7ASuFgN5LkW3VP-AlHl-53" value="Pipelines Module" style="fillColor=none;strokeColor=#5A6C86;dashed=1;verticalAlign=top;fontStyle=0;fontColor=#5A6C86;labelBackgroundColor=none;" vertex="1" parent="1">
          <mxGeometry x="261" y="900" width="140" height="180" as="geometry" />
        </mxCell>
        <mxCell id="x7ASuFgN5LkW3VP-AlHl-54" value="AWS Lambda&lt;br style=&quot;border-color: var(--border-color);&quot;&gt;&lt;i&gt;(Pipelines APIi)&lt;/i&gt;" style="sketch=0;points=[[0,0,0],[0.25,0,0],[0.5,0,0],[0.75,0,0],[1,0,0],[0,1,0],[0.25,1,0],[0.5,1,0],[0.75,1,0],[1,1,0],[0,0.25,0],[0,0.5,0],[0,0.75,0],[1,0.25,0],[1,0.5,0],[1,0.75,0]];outlineConnect=0;fontColor=#000000;gradientColor=#F78E04;gradientDirection=north;fillColor=#D05C17;strokeColor=#ffffff;dashed=0;verticalLabelPosition=bottom;verticalAlign=top;align=center;html=1;fontSize=12;fontStyle=0;aspect=fixed;shape=mxgraph.aws4.resourceIcon;resIcon=mxgraph.aws4.lambda;labelBackgroundColor=none;" vertex="1" parent="1">
          <mxGeometry x="293" y="942" width="78" height="78" as="geometry" />
        </mxCell>
        <mxCell id="Xhm-vHpL3H6jK5L-5Qmt-46" value="Calculator Module" style="fillColor=none;strokeColor=#5A6C86;dashed=1;verticalAlign=top;fontStyle=0;fontColor=#5A6C86;labelBackgroundColor=none;" parent="1" vertex="1">
          <mxGeometry x="410" y="900" width="140" height="180" as="geometry" />
        </mxCell>
        <mxCell id="Xhm-vHpL3H6jK5L-5Qmt-47" value="AWS Lambda&lt;br style=&quot;border-color: var(--border-color);&quot;&gt;&lt;i&gt;(Calculator Engine)&lt;/i&gt;" style="sketch=0;points=[[0,0,0],[0.25,0,0],[0.5,0,0],[0.75,0,0],[1,0,0],[0,1,0],[0.25,1,0],[0.5,1,0],[0.75,1,0],[1,1,0],[0,0.25,0],[0,0.5,0],[0,0.75,0],[1,0.25,0],[1,0.5,0],[1,0.75,0]];outlineConnect=0;fontColor=#000000;gradientColor=#F78E04;gradientDirection=north;fillColor=#D05C17;strokeColor=#ffffff;dashed=0;verticalLabelPosition=bottom;verticalAlign=top;align=center;html=1;fontSize=12;fontStyle=0;aspect=fixed;shape=mxgraph.aws4.resourceIcon;resIcon=mxgraph.aws4.lambda;labelBackgroundColor=none;" parent="1" vertex="1">
          <mxGeometry x="441" y="942" width="78" height="78" as="geometry" />
        </mxCell>
        <mxCell id="x7ASuFgN5LkW3VP-AlHl-46" value="activities" style="edgeStyle=orthogonalEdgeStyle;rounded=0;orthogonalLoop=1;jettySize=auto;html=1;" edge="1" parent="1" source="Xhm-vHpL3H6jK5L-5Qmt-47" target="x7ASuFgN5LkW3VP-AlHl-45">
          <mxGeometry x="-0.8039" y="9" relative="1" as="geometry">
            <Array as="points">
              <mxPoint x="1040" y="970" />
            </Array>
            <mxPoint as="offset" />
            <mxPoint x="950" y="860" as="sourcePoint" />
            <mxPoint x="950" y="1105" as="targetPoint" />
          </mxGeometry>
        </mxCell>
        <mxCell id="x7ASuFgN5LkW3VP-AlHl-63" style="edgeStyle=orthogonalEdgeStyle;rounded=0;orthogonalLoop=1;jettySize=auto;html=1;" edge="1" parent="1" source="0q_fMDn01YKZUEqcUs50-45" target="x7ASuFgN5LkW3VP-AlHl-54">
          <mxGeometry relative="1" as="geometry">
            <Array as="points">
              <mxPoint x="330" y="860" />
              <mxPoint x="330" y="860" />
            </Array>
          </mxGeometry>
        </mxCell>
        <mxCell id="x7ASuFgN5LkW3VP-AlHl-64" style="edgeStyle=orthogonalEdgeStyle;rounded=0;orthogonalLoop=1;jettySize=auto;html=1;jumpStyle=arc;" edge="1" parent="1" source="0q_fMDn01YKZUEqcUs50-46" target="Xhm-vHpL3H6jK5L-5Qmt-47">
          <mxGeometry relative="1" as="geometry">
            <Array as="points">
              <mxPoint x="480" y="820" />
              <mxPoint x="480" y="820" />
            </Array>
          </mxGeometry>
        </mxCell>
        <mxCell id="x7ASuFgN5LkW3VP-AlHl-65" style="edgeStyle=orthogonalEdgeStyle;rounded=0;orthogonalLoop=1;jettySize=auto;html=1;" edge="1" parent="1" source="0q_fMDn01YKZUEqcUs50-46" target="x7ASuFgN5LkW3VP-AlHl-54">
          <mxGeometry relative="1" as="geometry">
            <Array as="points">
              <mxPoint x="440" y="850" />
              <mxPoint x="330" y="850" />
            </Array>
          </mxGeometry>
        </mxCell>
        <mxCell id="x7ASuFgN5LkW3VP-AlHl-66" style="edgeStyle=orthogonalEdgeStyle;rounded=0;orthogonalLoop=1;jettySize=auto;html=1;jumpStyle=none;" edge="1" parent="1" source="0q_fMDn01YKZUEqcUs50-47" target="x7ASuFgN5LkW3VP-AlHl-54">
          <mxGeometry relative="1" as="geometry">
            <Array as="points">
              <mxPoint x="589" y="850" />
              <mxPoint x="330" y="850" />
            </Array>
          </mxGeometry>
        </mxCell>
        <mxCell id="x7ASuFgN5LkW3VP-AlHl-67" style="edgeStyle=orthogonalEdgeStyle;rounded=0;orthogonalLoop=1;jettySize=auto;html=1;" edge="1" parent="1" source="x7ASuFgN5LkW3VP-AlHl-60" target="x7ASuFgN5LkW3VP-AlHl-54">
          <mxGeometry relative="1" as="geometry">
            <Array as="points">
              <mxPoint x="715" y="850" />
              <mxPoint x="330" y="850" />
            </Array>
          </mxGeometry>
        </mxCell>
      </root>
    </mxGraphModel>
  </diagram>
  <diagram id="nciGAq8Cf_bisqND-OEC" name="physical-deployment">
    <mxGraphModel dx="1336" dy="2062" grid="1" gridSize="10" guides="1" tooltips="1" connect="1" arrows="1" fold="1" page="1" pageScale="1" pageWidth="1100" pageHeight="850" math="0" shadow="0">
      <root>
        <mxCell id="0" />
        <mxCell id="1" parent="0" />
        <mxCell id="MaESYQvMZ-KVtAKj_bNN-1" value="   Tenant Silo" style="fillColor=none;strokeColor=#5A6C86;dashed=1;verticalAlign=top;fontStyle=0;fontColor=#5A6C86;labelBackgroundColor=none;align=left;" parent="1" vertex="1">
          <mxGeometry x="251" y="-740" width="559" height="420" as="geometry" />
        </mxCell>
        <mxCell id="MaESYQvMZ-KVtAKj_bNN-2" value="Pipeline Processors Module" style="fillColor=none;strokeColor=#5A6C86;dashed=1;verticalAlign=top;fontStyle=0;fontColor=#5A6C86;labelBackgroundColor=none;" parent="1" vertex="1">
          <mxGeometry x="270" y="-710" width="520" height="370" as="geometry" />
        </mxCell>
        <mxCell id="MaESYQvMZ-KVtAKj_bNN-11" value="CDK DEPLOY" style="edgeStyle=none;html=1;labelBackgroundColor=none;fontColor=#000000;strokeColor=#000000;" parent="1" source="MaESYQvMZ-KVtAKj_bNN-12" edge="1">
          <mxGeometry x="-0.3947" y="15" relative="1" as="geometry">
            <mxPoint x="300" y="-455" as="targetPoint" />
            <mxPoint as="offset" />
          </mxGeometry>
        </mxCell>
        <mxCell id="MaESYQvMZ-KVtAKj_bNN-12" value="users" style="sketch=0;outlineConnect=0;gradientColor=none;fontColor=#545B64;strokeColor=none;fillColor=#879196;dashed=0;verticalLabelPosition=bottom;verticalAlign=top;align=center;html=1;fontSize=12;fontStyle=0;aspect=fixed;shape=mxgraph.aws4.illustration_users;pointerEvents=1;labelBackgroundColor=none;" parent="1" vertex="1">
          <mxGeometry x="50" y="-494" width="78" height="78" as="geometry" />
        </mxCell>
        <mxCell id="MaESYQvMZ-KVtAKj_bNN-13" value="Region" style="points=[[0,0],[0.25,0],[0.5,0],[0.75,0],[1,0],[1,0.25],[1,0.5],[1,0.75],[1,1],[0.75,1],[0.5,1],[0.25,1],[0,1],[0,0.75],[0,0.5],[0,0.25]];outlineConnect=0;gradientColor=none;html=1;whiteSpace=wrap;fontSize=12;fontStyle=0;container=1;pointerEvents=0;collapsible=0;recursiveResize=0;shape=mxgraph.aws4.group;grIcon=mxgraph.aws4.group_region;strokeColor=#147EBA;fillColor=none;verticalAlign=top;align=left;spacingLeft=30;fontColor=#147EBA;dashed=1;" parent="1" vertex="1">
          <mxGeometry x="230" y="-770" width="600" height="470" as="geometry" />
        </mxCell>
        <mxCell id="MaESYQvMZ-KVtAKj_bNN-14" value="AWS Cloud" style="points=[[0,0],[0.25,0],[0.5,0],[0.75,0],[1,0],[1,0.25],[1,0.5],[1,0.75],[1,1],[0.75,1],[0.5,1],[0.25,1],[0,1],[0,0.75],[0,0.5],[0,0.25]];outlineConnect=0;gradientColor=none;html=1;whiteSpace=wrap;fontSize=12;fontStyle=0;container=1;pointerEvents=0;collapsible=0;recursiveResize=0;shape=mxgraph.aws4.group;grIcon=mxgraph.aws4.group_aws_cloud_alt;strokeColor=#232F3E;fillColor=none;verticalAlign=top;align=left;spacingLeft=30;fontColor=#232F3E;dashed=0;" parent="1" vertex="1">
          <mxGeometry x="210" y="-800" width="640" height="520" as="geometry" />
        </mxCell>
        <mxCell id="MaESYQvMZ-KVtAKj_bNN-18" value="AWS Systems Manager&lt;br style=&quot;border-color: var(--border-color);&quot;&gt;&lt;i style=&quot;border-color: var(--border-color);&quot;&gt;(Config)&lt;/i&gt;" style="sketch=0;outlineConnect=0;fontColor=#232F3E;gradientColor=none;fillColor=#B0084D;strokeColor=none;dashed=0;verticalLabelPosition=bottom;verticalAlign=top;align=center;html=1;fontSize=12;fontStyle=0;aspect=fixed;pointerEvents=1;shape=mxgraph.aws4.parameter_store;" parent="MaESYQvMZ-KVtAKj_bNN-14" vertex="1">
          <mxGeometry x="101.5" y="120" width="75" height="78" as="geometry" />
        </mxCell>
        <mxCell id="L6Fsh915xMBsslGw0S4I-8" value="invokes" style="edgeStyle=orthogonalEdgeStyle;rounded=0;orthogonalLoop=1;jettySize=auto;html=1;" parent="MaESYQvMZ-KVtAKj_bNN-14" source="MaESYQvMZ-KVtAKj_bNN-20" target="L6Fsh915xMBsslGw0S4I-4" edge="1">
          <mxGeometry relative="1" as="geometry" />
        </mxCell>
        <mxCell id="MaESYQvMZ-KVtAKj_bNN-20" value="AWS CloudFormation" style="sketch=0;points=[[0,0,0],[0.25,0,0],[0.5,0,0],[0.75,0,0],[1,0,0],[0,1,0],[0.25,1,0],[0.5,1,0],[0.75,1,0],[1,1,0],[0,0.25,0],[0,0.5,0],[0,0.75,0],[1,0.25,0],[1,0.5,0],[1,0.75,0]];points=[[0,0,0],[0.25,0,0],[0.5,0,0],[0.75,0,0],[1,0,0],[0,1,0],[0.25,1,0],[0.5,1,0],[0.75,1,0],[1,1,0],[0,0.25,0],[0,0.5,0],[0,0.75,0],[1,0.25,0],[1,0.5,0],[1,0.75,0]];outlineConnect=0;fontColor=#232F3E;gradientColor=#F34482;gradientDirection=north;fillColor=#BC1356;strokeColor=#ffffff;dashed=0;verticalLabelPosition=bottom;verticalAlign=top;align=center;html=1;fontSize=12;fontStyle=0;aspect=fixed;shape=mxgraph.aws4.resourceIcon;resIcon=mxgraph.aws4.cloudformation;" parent="MaESYQvMZ-KVtAKj_bNN-14" vertex="1">
          <mxGeometry x="100" y="311" width="78" height="78" as="geometry" />
        </mxCell>
        <mxCell id="MaESYQvMZ-KVtAKj_bNN-19" value="store" style="edgeStyle=orthogonalEdgeStyle;rounded=0;orthogonalLoop=1;jettySize=auto;html=1;" parent="MaESYQvMZ-KVtAKj_bNN-14" source="MaESYQvMZ-KVtAKj_bNN-20" target="MaESYQvMZ-KVtAKj_bNN-18" edge="1">
          <mxGeometry x="-0.6332" y="-1" relative="1" as="geometry">
            <Array as="points" />
            <mxPoint as="offset" />
          </mxGeometry>
        </mxCell>
        <mxCell id="L6Fsh915xMBsslGw0S4I-4" value="AWS Lambda&lt;br style=&quot;border-color: var(--border-color);&quot;&gt;&lt;i style=&quot;border-color: var(--border-color);&quot;&gt;(Log Retention&lt;br style=&quot;border-color: var(--border-color);&quot;&gt;Management)&lt;/i&gt;" style="sketch=0;points=[[0,0,0],[0.25,0,0],[0.5,0,0],[0.75,0,0],[1,0,0],[0,1,0],[0.25,1,0],[0.5,1,0],[0.75,1,0],[1,1,0],[0,0.25,0],[0,0.5,0],[0,0.75,0],[1,0.25,0],[1,0.5,0],[1,0.75,0]];outlineConnect=0;fontColor=#000000;gradientColor=#F78E04;gradientDirection=north;fillColor=#D05C17;strokeColor=#ffffff;dashed=0;verticalLabelPosition=bottom;verticalAlign=top;align=center;html=1;fontSize=12;fontStyle=0;aspect=fixed;shape=mxgraph.aws4.resourceIcon;resIcon=mxgraph.aws4.lambda;labelBackgroundColor=none;" parent="MaESYQvMZ-KVtAKj_bNN-14" vertex="1">
          <mxGeometry x="280" y="311" width="78" height="78" as="geometry" />
        </mxCell>
        <mxCell id="L6Fsh915xMBsslGw0S4I-5" value="Amazon CloudWatch&lt;br style=&quot;border-color: var(--border-color);&quot;&gt;&lt;i style=&quot;border-color: var(--border-color);&quot;&gt;(App Logs)&lt;/i&gt;" style="sketch=0;outlineConnect=0;fontColor=#232F3E;gradientColor=none;fillColor=#B0084D;strokeColor=none;dashed=0;verticalLabelPosition=bottom;verticalAlign=top;align=center;html=1;fontSize=12;fontStyle=0;aspect=fixed;pointerEvents=1;shape=mxgraph.aws4.logs;" parent="1" vertex="1">
          <mxGeometry x="680" y="-484" width="78" height="58" as="geometry" />
        </mxCell>
        <mxCell id="L6Fsh915xMBsslGw0S4I-6" value="configures" style="edgeStyle=orthogonalEdgeStyle;rounded=0;orthogonalLoop=1;jettySize=auto;html=1;" parent="1" source="L6Fsh915xMBsslGw0S4I-4" target="L6Fsh915xMBsslGw0S4I-5" edge="1">
          <mxGeometry relative="1" as="geometry" />
        </mxCell>
      </root>
    </mxGraphModel>
  </diagram>
</mxfile>
